# This file uses centimeters as units for non-parametric coordinates.

mtllib arches.mtl
g default
v 1.000000 47.950899 4.192144
v 1.000000 49.826831 4.761201
v 1.000000 51.555700 5.685299
v 1.000000 53.071067 6.928926
v 1.000000 54.314696 8.444292
v 1.000000 55.238797 10.173160
v 1.000000 55.807857 12.049091
v 1.000000 56.000005 13.999996
v 1.000000 55.807858 15.950900
v 1.000000 55.238802 17.826832
v 1.000000 54.314703 19.555702
v 1.000000 53.071075 21.071069
v 1.000000 51.555709 22.314699
v 1.000000 49.826840 23.238800
v 1.000000 47.950908 23.807859
v 1.000000 46.000003 24.000008
v 1.000000 46.000000 3.999986
v 1.000000 48.536162 1.249820
v 1.000000 50.974868 1.989592
v 1.000000 53.222392 3.190916
v 1.000000 55.192364 4.807628
v 1.000000 56.809078 6.777597
v 1.000000 58.010406 9.025120
v 1.000000 58.750181 11.463825
v 1.000000 58.999973 13.999994
v 1.000000 58.750183 16.536163
v 1.000000 58.010412 18.974869
v 1.000000 56.809087 21.222394
v 1.000000 55.192374 23.192367
v 1.000000 53.222404 24.809082
v 1.000000 50.974880 26.010410
v 1.000000 48.536174 26.750185
v 1.000000 46.000004 26.999977
v 1.000000 46.000000 1.000014
v -1.000000 48.536162 1.249820
v -1.000000 50.974868 1.989592
v -1.000000 53.222392 3.190916
v -1.000000 55.192364 4.807628
v -1.000000 56.809078 6.777597
v -1.000000 58.010406 9.025120
v -1.000000 58.750181 11.463825
v -1.000000 58.999973 13.999994
v -1.000000 58.750183 16.536163
v -1.000000 58.010412 18.974869
v -1.000000 56.809087 21.222394
v -1.000000 55.192374 23.192367
v -1.000000 53.222404 24.809082
v -1.000000 50.974880 26.010410
v -1.000000 48.536174 26.750185
v -1.000000 46.000004 26.999977
v -1.000000 46.000000 1.000014
v -1.000000 47.950899 4.192144
v -1.000000 49.826831 4.761201
v -1.000000 51.555700 5.685299
v -1.000000 53.071067 6.928926
v -1.000000 54.314696 8.444292
v -1.000000 55.238797 10.173160
v -1.000000 55.807857 12.049091
v -1.000000 56.000005 13.999996
v -1.000000 55.807858 15.950900
v -1.000000 55.238802 17.826832
v -1.000000 54.314703 19.555702
v -1.000000 53.071075 21.071069
v -1.000000 51.555709 22.314699
v -1.000000 49.826840 23.238800
v -1.000000 47.950908 23.807859
v -1.000000 46.000003 24.000008
v -1.000000 46.000000 3.999986
vt 0.000000 1.000000
vt 0.031250 1.000000
vt 0.062500 1.000000
vt 0.093750 1.000000
vt 0.125000 1.000000
vt 0.156250 1.000000
vt 0.187500 1.000000
vt 0.218750 1.000000
vt 0.250000 1.000000
vt 0.281250 1.000000
vt 0.312500 1.000000
vt 0.343750 1.000000
vt 0.375000 1.000000
vt 0.406250 1.000000
vt 0.437500 1.000000
vt 0.468750 1.000000
vt 0.968750 1.000000
vt 1.000000 1.000000
vt 0.000000 0.750000
vt 0.031250 0.750000
vt 0.062500 0.750000
vt 0.093750 0.750000
vt 0.125000 0.750000
vt 0.156250 0.750000
vt 0.187500 0.750000
vt 0.218750 0.750000
vt 0.250000 0.750000
vt 0.281250 0.750000
vt 0.312500 0.750000
vt 0.343750 0.750000
vt 0.375000 0.750000
vt 0.406250 0.750000
vt 0.437500 0.750000
vt 0.468750 0.750000
vt 0.968750 0.750000
vt 1.000000 0.750000
vt 0.000000 0.500000
vt 0.031250 0.500000
vt 0.062500 0.500000
vt 0.093750 0.500000
vt 0.125000 0.500000
vt 0.156250 0.500000
vt 0.187500 0.500000
vt 0.218750 0.500000
vt 0.250000 0.500000
vt 0.281250 0.500000
vt 0.312500 0.500000
vt 0.343750 0.500000
vt 0.375000 0.500000
vt 0.406250 0.500000
vt 0.437500 0.500000
vt 0.468750 0.500000
vt 0.968750 0.500000
vt 1.000000 0.500000
vt 0.000000 0.250000
vt 0.031250 0.250000
vt 0.062500 0.250000
vt 0.093750 0.250000
vt 0.125000 0.250000
vt 0.156250 0.250000
vt 0.187500 0.250000
vt 0.218750 0.250000
vt 0.250000 0.250000
vt 0.281250 0.250000
vt 0.312500 0.250000
vt 0.343750 0.250000
vt 0.375000 0.250000
vt 0.406250 0.250000
vt 0.437500 0.250000
vt 0.468750 0.250000
vt 0.968750 0.250000
vt 1.000000 0.250000
vt 0.000000 0.000000
vt 0.031250 0.000000
vt 0.062500 0.000000
vt 0.093750 0.000000
vt 0.125000 0.000000
vt 0.156250 0.000000
vt 0.187500 0.000000
vt 0.218750 0.000000
vt 0.250000 0.000000
vt 0.281250 0.000000
vt 0.312500 0.000000
vt 0.343750 0.000000
vt 0.375000 0.000000
vt 0.406250 0.000000
vt 0.437500 0.000000
vt 0.468750 0.000000
vt 0.968750 0.000000
vt 1.000000 0.000000
vn 1.000000 0.000000 -0.000000
vn 1.000000 0.000000 -0.000000
vn 1.000000 0.000000 -0.000000
vn 1.000000 0.000000 -0.000000
vn 1.000000 0.000000 -0.000000
vn 1.000000 0.000000 -0.000000
vn 1.000000 0.000000 -0.000000
vn 1.000000 0.000000 -0.000000
vn 1.000000 0.000000 -0.000000
vn 1.000000 0.000000 -0.000000
vn 1.000000 0.000000 -0.000000
vn 1.000000 0.000000 -0.000000
vn 1.000000 0.000000 -0.000000
vn 1.000000 0.000000 -0.000000
vn 1.000000 0.000000 -0.000000
vn 1.000000 0.000000 -0.000000
vn 1.000000 0.000000 0.000000
vn 1.000000 0.000000 0.000000
vn 1.000000 0.000000 0.000000
vn 1.000000 0.000000 0.000000
vn 1.000000 0.000000 0.000000
vn 1.000000 0.000000 0.000000
vn 1.000000 0.000000 0.000000
vn 1.000000 0.000000 0.000000
vn 1.000000 0.000000 0.000000
vn 1.000000 0.000000 0.000000
vn 1.000000 0.000000 0.000000
vn 1.000000 0.000000 0.000000
vn 1.000000 0.000000 0.000000
vn 1.000000 0.000000 0.000000
vn 1.000000 0.000000 0.000000
vn 1.000000 0.000000 0.000000
vn 1.000000 0.000000 -0.000000
vn 1.000000 0.000000 -0.000000
vn 0.000000 0.382683 -0.923880
vn 0.000000 0.195093 -0.980785
vn 0.000000 0.195093 -0.980785
vn 0.000000 0.382683 -0.923880
vn 0.000000 0.555570 -0.831470
vn 0.000000 0.555570 -0.831470
vn 0.000000 0.707106 -0.707107
vn 0.000000 0.707106 -0.707107
vn -0.000000 0.831469 -0.555571
vn -0.000000 0.831469 -0.555571
vn -0.000000 0.923879 -0.382684
vn -0.000000 0.923879 -0.382684
vn -0.000000 0.980785 -0.195091
vn -0.000000 0.980785 -0.195091
vn -0.000000 1.000000 -0.000000
vn -0.000000 1.000000 -0.000000
vn -0.000000 0.980785 0.195090
vn -0.000000 0.980785 0.195090
vn -0.000000 0.923880 0.382683
vn -0.000000 0.923880 0.382683
vn -0.000000 0.831470 0.555570
vn -0.000000 0.831470 0.555570
vn -0.000000 0.707107 0.707106
vn -0.000000 0.707107 0.707106
vn -0.000000 0.555571 0.831469
vn -0.000000 0.555571 0.831469
vn -0.000000 0.382684 0.923879
vn -0.000000 0.382684 0.923879
vn -0.000000 0.195091 0.980785
vn -0.000000 0.195091 0.980785
vn -0.000000 0.098018 0.995185
vn -0.000000 0.098018 0.995185
vn 0.000000 0.098023 -0.995184
vn 0.000000 0.098023 -0.995184
vn -1.000000 -0.000000 0.000000
vn -1.000000 -0.000000 0.000000
vn -1.000000 -0.000000 0.000000
vn -1.000000 -0.000000 0.000000
vn -1.000000 -0.000000 0.000000
vn -1.000000 -0.000000 0.000000
vn -1.000000 -0.000000 0.000000
vn -1.000000 -0.000000 0.000000
vn -1.000000 -0.000000 0.000000
vn -1.000000 -0.000000 0.000000
vn -1.000000 -0.000000 0.000000
vn -1.000000 -0.000000 0.000000
vn -1.000000 -0.000000 0.000000
vn -1.000000 -0.000000 0.000000
vn -1.000000 -0.000000 0.000000
vn -1.000000 -0.000000 0.000000
vn -1.000000 -0.000000 -0.000000
vn -1.000000 -0.000000 -0.000000
vn -1.000000 -0.000000 -0.000000
vn -1.000000 -0.000000 -0.000000
vn -1.000000 -0.000000 -0.000000
vn -1.000000 -0.000000 -0.000000
vn -1.000000 -0.000000 -0.000000
vn -1.000000 -0.000000 -0.000000
vn -1.000000 -0.000000 -0.000000
vn -1.000000 -0.000000 -0.000000
vn -1.000000 -0.000000 -0.000000
vn -1.000000 -0.000000 -0.000000
vn -1.000000 -0.000000 -0.000000
vn -1.000000 -0.000000 -0.000000
vn -1.000000 -0.000000 -0.000000
vn -1.000000 -0.000000 -0.000000
vn -1.000000 -0.000000 0.000000
vn -1.000000 -0.000000 0.000000
vn -0.000000 -0.382683 0.923880
vn -0.000000 -0.195093 0.980785
vn -0.000000 -0.195093 0.980785
vn -0.000000 -0.382683 0.923880
vn -0.000000 -0.555570 0.831470
vn -0.000000 -0.555570 0.831470
vn -0.000000 -0.707106 0.707107
vn -0.000000 -0.707106 0.707107
vn 0.000000 -0.831469 0.555571
vn 0.000000 -0.831469 0.555571
vn 0.000000 -0.923879 0.382684
vn 0.000000 -0.923879 0.382684
vn 0.000000 -0.980785 0.195091
vn 0.000000 -0.980785 0.195091
vn 0.000000 -1.000000 0.000000
vn 0.000000 -1.000000 0.000000
vn 0.000000 -0.980785 -0.195090
vn 0.000000 -0.980785 -0.195090
vn 0.000000 -0.923880 -0.382683
vn 0.000000 -0.923880 -0.382683
vn 0.000000 -0.831470 -0.555570
vn 0.000000 -0.831470 -0.555570
vn 0.000000 -0.707107 -0.707106
vn 0.000000 -0.707107 -0.707106
vn 0.000000 -0.555571 -0.831469
vn 0.000000 -0.555571 -0.831469
vn 0.000000 -0.382684 -0.923879
vn 0.000000 -0.382684 -0.923879
vn 0.000000 -0.195091 -0.980785
vn 0.000000 -0.195091 -0.980785
vn 0.000000 -0.098018 -0.995185
vn 0.000000 -0.098018 -0.995185
vn -0.000000 -0.098023 0.995184
vn -0.000000 -0.098023 0.995184
s 1
g pTorus9
usemtl initialShadingGroup
f 2/2/1 1/1/2 18/19/3 19/20/4
f 3/3/5 2/2/1 19/20/4 20/21/6
f 4/4/7 3/3/5 20/21/6 21/22/8
f 5/5/9 4/4/7 21/22/8 22/23/10
f 6/6/11 5/5/9 22/23/10 23/24/12
f 7/7/13 6/6/11 23/24/12 24/25/14
f 8/8/15 7/7/13 24/25/14 25/26/16
f 9/9/17 8/8/15 25/26/16 26/27/18
f 10/10/19 9/9/17 26/27/18 27/28/20
f 11/11/21 10/10/19 27/28/20 28/29/22
f 12/12/23 11/11/21 28/29/22 29/30/24
f 13/13/25 12/12/23 29/30/24 30/31/26
f 14/14/27 13/13/25 30/31/26 31/32/28
f 15/15/29 14/14/27 31/32/28 32/33/30
f 16/16/31 15/15/29 32/33/30 33/34/32
f 1/18/2 17/17/33 34/35/34 18/36/3
s 2
f 19/20/35 18/19/36 35/37/37 36/38/38
f 20/21/39 19/20/35 36/38/38 37/39/40
f 21/22/41 20/21/39 37/39/40 38/40/42
f 22/23/43 21/22/41 38/40/42 39/41/44
f 23/24/45 22/23/43 39/41/44 40/42/46
f 24/25/47 23/24/45 40/42/46 41/43/48
f 25/26/49 24/25/47 41/43/48 42/44/50
f 26/27/51 25/26/49 42/44/50 43/45/52
f 27/28/53 26/27/51 43/45/52 44/46/54
f 28/29/55 27/28/53 44/46/54 45/47/56
f 29/30/57 28/29/55 45/47/56 46/48/58
f 30/31/59 29/30/57 46/48/58 47/49/60
f 31/32/61 30/31/59 47/49/60 48/50/62
f 32/33/63 31/32/61 48/50/62 49/51/64
f 33/34/65 32/33/63 49/51/64 50/52/66
f 18/36/36 34/35/67 51/53/68 35/54/37
s 3
f 36/38/69 35/37/70 52/55/71 53/56/72
f 37/39/73 36/38/69 53/56/72 54/57/74
f 38/40/75 37/39/73 54/57/74 55/58/76
f 39/41/77 38/40/75 55/58/76 56/59/78
f 40/42/79 39/41/77 56/59/78 57/60/80
f 41/43/81 40/42/79 57/60/80 58/61/82
f 42/44/83 41/43/81 58/61/82 59/62/84
f 43/45/85 42/44/83 59/62/84 60/63/86
f 44/46/87 43/45/85 60/63/86 61/64/88
f 45/47/89 44/46/87 61/64/88 62/65/90
f 46/48/91 45/47/89 62/65/90 63/66/92
f 47/49/93 46/48/91 63/66/92 64/67/94
f 48/50/95 47/49/93 64/67/94 65/68/96
f 49/51/97 48/50/95 65/68/96 66/69/98
f 50/52/99 49/51/97 66/69/98 67/70/100
f 35/54/70 51/53/101 68/71/102 52/72/71
s 4
f 53/56/103 52/55/104 1/73/105 2/74/106
f 54/57/107 53/56/103 2/74/106 3/75/108
f 55/58/109 54/57/107 3/75/108 4/76/110
f 56/59/111 55/58/109 4/76/110 5/77/112
f 57/60/113 56/59/111 5/77/112 6/78/114
f 58/61/115 57/60/113 6/78/114 7/79/116
f 59/62/117 58/61/115 7/79/116 8/80/118
f 60/63/119 59/62/117 8/80/118 9/81/120
f 61/64/121 60/63/119 9/81/120 10/82/122
f 62/65/123 61/64/121 10/82/122 11/83/124
f 63/66/125 62/65/123 11/83/124 12/84/126
f 64/67/127 63/66/125 12/84/126 13/85/128
f 65/68/129 64/67/127 13/85/128 14/86/130
f 66/69/131 65/68/129 14/86/130 15/87/132
f 67/70/133 66/69/131 15/87/132 16/88/134
f 52/72/104 68/71/135 17/89/136 1/90/105
g default
v 23.807856 47.950899 1.000000
v 23.238799 49.826831 1.000000
v 22.314701 51.555700 1.000000
v 21.071074 53.071067 1.000000
v 19.555708 54.314696 1.000000
v 17.826840 55.238797 1.000000
v 15.950909 55.807857 1.000000
v 14.000004 56.000005 1.000000
v 12.049100 55.807858 1.000000
v 10.173168 55.238802 1.000000
v 8.444298 54.314703 1.000000
v 6.928931 53.071075 1.000000
v 5.685301 51.555709 1.000000
v 4.761200 49.826840 1.000000
v 4.192141 47.950908 1.000000
v 3.999992 46.000003 1.000000
v 24.000014 46.000000 1.000000
v 26.750180 48.536162 1.000000
v 26.010408 50.974868 1.000000
v 24.809084 53.222392 1.000000
v 23.192372 55.192364 1.000000
v 21.222403 56.809078 1.000000
v 18.974880 58.010406 1.000000
v 16.536175 58.750181 1.000000
v 14.000006 58.999973 1.000000
v 11.463837 58.750183 1.000000
v 9.025131 58.010412 1.000000
v 6.777606 56.809087 1.000000
v 4.807633 55.192374 1.000000
v 3.190918 53.222404 1.000000
v 1.989590 50.974880 1.000000
v 1.249815 48.536174 1.000000
v 1.000023 46.000004 1.000000
v 26.999986 46.000000 1.000000
v 26.750180 48.536162 -1.000000
v 26.010408 50.974868 -1.000000
v 24.809084 53.222392 -1.000000
v 23.192372 55.192364 -1.000000
v 21.222403 56.809078 -1.000000
v 18.974880 58.010406 -1.000000
v 16.536175 58.750181 -1.000000
v 14.000006 58.999973 -1.000000
v 11.463837 58.750183 -1.000000
v 9.025131 58.010412 -1.000000
v 6.777606 56.809087 -1.000000
v 4.807633 55.192374 -1.000000
v 3.190918 53.222404 -1.000000
v 1.989590 50.974880 -1.000000
v 1.249815 48.536174 -1.000000
v 1.000023 46.000004 -1.000000
v 26.999986 46.000000 -1.000000
v 23.807856 47.950899 -1.000000
v 23.238799 49.826831 -1.000000
v 22.314701 51.555700 -1.000000
v 21.071074 53.071067 -1.000000
v 19.555708 54.314696 -1.000000
v 17.826840 55.238797 -1.000000
v 15.950909 55.807857 -1.000000
v 14.000004 56.000005 -1.000000
v 12.049100 55.807858 -1.000000
v 10.173168 55.238802 -1.000000
v 8.444298 54.314703 -1.000000
v 6.928931 53.071075 -1.000000
v 5.685301 51.555709 -1.000000
v 4.761200 49.826840 -1.000000
v 4.192141 47.950908 -1.000000
v 3.999992 46.000003 -1.000000
v 24.000014 46.000000 -1.000000
vt 0.000000 1.000000
vt 0.031250 1.000000
vt 0.062500 1.000000
vt 0.093750 1.000000
vt 0.125000 1.000000
vt 0.156250 1.000000
vt 0.187500 1.000000
vt 0.218750 1.000000
vt 0.250000 1.000000
vt 0.281250 1.000000
vt 0.312500 1.000000
vt 0.343750 1.000000
vt 0.375000 1.000000
vt 0.406250 1.000000
vt 0.437500 1.000000
vt 0.468750 1.000000
vt 0.968750 1.000000
vt 1.000000 1.000000
vt 0.000000 0.750000
vt 0.031250 0.750000
vt 0.062500 0.750000
vt 0.093750 0.750000
vt 0.125000 0.750000
vt 0.156250 0.750000
vt 0.187500 0.750000
vt 0.218750 0.750000
vt 0.250000 0.750000
vt 0.281250 0.750000
vt 0.312500 0.750000
vt 0.343750 0.750000
vt 0.375000 0.750000
vt 0.406250 0.750000
vt 0.437500 0.750000
vt 0.468750 0.750000
vt 0.968750 0.750000
vt 1.000000 0.750000
vt 0.000000 0.500000
vt 0.031250 0.500000
vt 0.062500 0.500000
vt 0.093750 0.500000
vt 0.125000 0.500000
vt 0.156250 0.500000
vt 0.187500 0.500000
vt 0.218750 0.500000
vt 0.250000 0.500000
vt 0.281250 0.500000
vt 0.312500 0.500000
vt 0.343750 0.500000
vt 0.375000 0.500000
vt 0.406250 0.500000
vt 0.437500 0.500000
vt 0.468750 0.500000
vt 0.968750 0.500000
vt 1.000000 0.500000
vt 0.000000 0.250000
vt 0.031250 0.250000
vt 0.062500 0.250000
vt 0.093750 0.250000
vt 0.125000 0.250000
vt 0.156250 0.250000
vt 0.187500 0.250000
vt 0.218750 0.250000
vt 0.250000 0.250000
vt 0.281250 0.250000
vt 0.312500 0.250000
vt 0.343750 0.250000
vt 0.375000 0.250000
vt 0.406250 0.250000
vt 0.437500 0.250000
vt 0.468750 0.250000
vt 0.968750 0.250000
vt 1.000000 0.250000
vt 0.000000 0.000000
vt 0.031250 0.000000
vt 0.062500 0.000000
vt 0.093750 0.000000
vt 0.125000 0.000000
vt 0.156250 0.000000
vt 0.187500 0.000000
vt 0.218750 0.000000
vt 0.250000 0.000000
vt 0.281250 0.000000
vt 0.312500 0.000000
vt 0.343750 0.000000
vt 0.375000 0.000000
vt 0.406250 0.000000
vt 0.437500 0.000000
vt 0.468750 0.000000
vt 0.968750 0.000000
vt 1.000000 0.000000
vn 0.000000 0.000000 1.000000
vn 0.000000 0.000000 1.000000
vn 0.000000 0.000000 1.000000
vn 0.000000 0.000000 1.000000
vn 0.000000 0.000000 1.000000
vn 0.000000 0.000000 1.000000
vn 0.000000 0.000000 1.000000
vn 0.000000 0.000000 1.000000
vn 0.000000 0.000000 1.000000
vn 0.000000 0.000000 1.000000
vn 0.000000 0.000000 1.000000
vn 0.000000 0.000000 1.000000
vn 0.000000 0.000000 1.000000
vn 0.000000 0.000000 1.000000
vn 0.000000 0.000000 1.000000
vn 0.000000 0.000000 1.000000
vn -0.000000 0.000000 1.000000
vn -0.000000 0.000000 1.000000
vn -0.000000 0.000000 1.000000
vn -0.000000 0.000000 1.000000
vn -0.000000 0.000000 1.000000
vn -0.000000 0.000000 1.000000
vn -0.000000 0.000000 1.000000
vn -0.000000 0.000000 1.000000
vn -0.000000 0.000000 1.000000
vn -0.000000 0.000000 1.000000
vn -0.000000 0.000000 1.000000
vn -0.000000 0.000000 1.000000
vn -0.000000 0.000000 1.000000
vn -0.000000 0.000000 1.000000
vn -0.000000 0.000000 1.000000
vn -0.000000 0.000000 1.000000
vn 0.000000 0.000000 1.000000
vn 0.000000 0.000000 1.000000
vn 0.923880 0.382683 -0.000000
vn 0.980785 0.195093 -0.000000
vn 0.980785 0.195093 -0.000000
vn 0.923880 0.382683 -0.000000
vn 0.831470 0.555570 -0.000000
vn 0.831470 0.555570 -0.000000
vn 0.707107 0.707106 -0.000000
vn 0.707107 0.707106 -0.000000
vn 0.555571 0.831469 -0.000000
vn 0.555571 0.831469 -0.000000
vn 0.382684 0.923879 -0.000000
vn 0.382684 0.923879 -0.000000
vn 0.195091 0.980785 -0.000000
vn 0.195091 0.980785 -0.000000
vn 0.000000 1.000000 -0.000000
vn 0.000000 1.000000 -0.000000
vn -0.195090 0.980785 -0.000000
vn -0.195090 0.980785 -0.000000
vn -0.382683 0.923880 -0.000000
vn -0.382683 0.923880 -0.000000
vn -0.555570 0.831470 -0.000000
vn -0.555570 0.831470 -0.000000
vn -0.707106 0.707107 -0.000000
vn -0.707106 0.707107 -0.000000
vn -0.831469 0.555571 -0.000000
vn -0.831469 0.555571 -0.000000
vn -0.923879 0.382684 -0.000000
vn -0.923879 0.382684 -0.000000
vn -0.980785 0.195091 -0.000000
vn -0.980785 0.195091 -0.000000
vn -0.995185 0.098018 -0.000000
vn -0.995185 0.098018 -0.000000
vn 0.995184 0.098023 -0.000000
vn 0.995184 0.098023 -0.000000
vn -0.000000 -0.000000 -1.000000
vn -0.000000 -0.000000 -1.000000
vn -0.000000 -0.000000 -1.000000
vn -0.000000 -0.000000 -1.000000
vn -0.000000 -0.000000 -1.000000
vn -0.000000 -0.000000 -1.000000
vn -0.000000 -0.000000 -1.000000
vn -0.000000 -0.000000 -1.000000
vn -0.000000 -0.000000 -1.000000
vn -0.000000 -0.000000 -1.000000
vn -0.000000 -0.000000 -1.000000
vn -0.000000 -0.000000 -1.000000
vn -0.000000 -0.000000 -1.000000
vn -0.000000 -0.000000 -1.000000
vn -0.000000 -0.000000 -1.000000
vn -0.000000 -0.000000 -1.000000
vn 0.000000 -0.000000 -1.000000
vn 0.000000 -0.000000 -1.000000
vn 0.000000 -0.000000 -1.000000
vn 0.000000 -0.000000 -1.000000
vn 0.000000 -0.000000 -1.000000
vn 0.000000 -0.000000 -1.000000
vn 0.000000 -0.000000 -1.000000
vn 0.000000 -0.000000 -1.000000
vn 0.000000 -0.000000 -1.000000
vn 0.000000 -0.000000 -1.000000
vn 0.000000 -0.000000 -1.000000
vn 0.000000 -0.000000 -1.000000
vn 0.000000 -0.000000 -1.000000
vn 0.000000 -0.000000 -1.000000
vn 0.000000 -0.000000 -1.000000
vn 0.000000 -0.000000 -1.000000
vn -0.000000 -0.000000 -1.000000
vn -0.000000 -0.000000 -1.000000
vn -0.923880 -0.382683 0.000000
vn -0.980785 -0.195093 0.000000
vn -0.980785 -0.195093 0.000000
vn -0.923880 -0.382683 0.000000
vn -0.831470 -0.555570 0.000000
vn -0.831470 -0.555570 0.000000
vn -0.707107 -0.707106 0.000000
vn -0.707107 -0.707106 0.000000
vn -0.555571 -0.831469 0.000000
vn -0.555571 -0.831469 0.000000
vn -0.382684 -0.923879 0.000000
vn -0.382684 -0.923879 0.000000
vn -0.195091 -0.980785 0.000000
vn -0.195091 -0.980785 0.000000
vn -0.000000 -1.000000 0.000000
vn -0.000000 -1.000000 0.000000
vn 0.195090 -0.980785 0.000000
vn 0.195090 -0.980785 0.000000
vn 0.382683 -0.923880 0.000000
vn 0.382683 -0.923880 0.000000
vn 0.555570 -0.831470 0.000000
vn 0.555570 -0.831470 0.000000
vn 0.707106 -0.707107 0.000000
vn 0.707106 -0.707107 0.000000
vn 0.831469 -0.555571 0.000000
vn 0.831469 -0.555571 0.000000
vn 0.923879 -0.382684 0.000000
vn 0.923879 -0.382684 0.000000
vn 0.980785 -0.195091 0.000000
vn 0.980785 -0.195091 0.000000
vn 0.995185 -0.098018 0.000000
vn 0.995185 -0.098018 0.000000
vn -0.995184 -0.098023 0.000000
vn -0.995184 -0.098023 0.000000
s 1
g pTorus8
usemtl initialShadingGroup
f 70/92/137 69/91/138 86/109/139 87/110/140
f 71/93/141 70/92/137 87/110/140 88/111/142
f 72/94/143 71/93/141 88/111/142 89/112/144
f 73/95/145 72/94/143 89/112/144 90/113/146
f 74/96/147 73/95/145 90/113/146 91/114/148
f 75/97/149 74/96/147 91/114/148 92/115/150
f 76/98/151 75/97/149 92/115/150 93/116/152
f 77/99/153 76/98/151 93/116/152 94/117/154
f 78/100/155 77/99/153 94/117/154 95/118/156
f 79/101/157 78/100/155 95/118/156 96/119/158
f 80/102/159 79/101/157 96/119/158 97/120/160
f 81/103/161 80/102/159 97/120/160 98/121/162
f 82/104/163 81/103/161 98/121/162 99/122/164
f 83/105/165 82/104/163 99/122/164 100/123/166
f 84/106/167 83/105/165 100/123/166 101/124/168
f 69/108/138 85/107/169 102/125/170 86/126/139
s 2
f 87/110/171 86/109/172 103/127/173 104/128/174
f 88/111/175 87/110/171 104/128/174 105/129/176
f 89/112/177 88/111/175 105/129/176 106/130/178
f 90/113/179 89/112/177 106/130/178 107/131/180
f 91/114/181 90/113/179 107/131/180 108/132/182
f 92/115/183 91/114/181 108/132/182 109/133/184
f 93/116/185 92/115/183 109/133/184 110/134/186
f 94/117/187 93/116/185 110/134/186 111/135/188
f 95/118/189 94/117/187 111/135/188 112/136/190
f 96/119/191 95/118/189 112/136/190 113/137/192
f 97/120/193 96/119/191 113/137/192 114/138/194
f 98/121/195 97/120/193 114/138/194 115/139/196
f 99/122/197 98/121/195 115/139/196 116/140/198
f 100/123/199 99/122/197 116/140/198 117/141/200
f 101/124/201 100/123/199 117/141/200 118/142/202
f 86/126/172 102/125/203 119/143/204 103/144/173
s 3
f 104/128/205 103/127/206 120/145/207 121/146/208
f 105/129/209 104/128/205 121/146/208 122/147/210
f 106/130/211 105/129/209 122/147/210 123/148/212
f 107/131/213 106/130/211 123/148/212 124/149/214
f 108/132/215 107/131/213 124/149/214 125/150/216
f 109/133/217 108/132/215 125/150/216 126/151/218
f 110/134/219 109/133/217 126/151/218 127/152/220
f 111/135/221 110/134/219 127/152/220 128/153/222
f 112/136/223 111/135/221 128/153/222 129/154/224
f 113/137/225 112/136/223 129/154/224 130/155/226
f 114/138/227 113/137/225 130/155/226 131/156/228
f 115/139/229 114/138/227 131/156/228 132/157/230
f 116/140/231 115/139/229 132/157/230 133/158/232
f 117/141/233 116/140/231 133/158/232 134/159/234
f 118/142/235 117/141/233 134/159/234 135/160/236
f 103/144/206 119/143/237 136/161/238 120/162/207
s 4
f 121/146/239 120/145/240 69/163/241 70/164/242
f 122/147/243 121/146/239 70/164/242 71/165/244
f 123/148/245 122/147/243 71/165/244 72/166/246
f 124/149/247 123/148/245 72/166/246 73/167/248
f 125/150/249 124/149/247 73/167/248 74/168/250
f 126/151/251 125/150/249 74/168/250 75/169/252
f 127/152/253 126/151/251 75/169/252 76/170/254
f 128/153/255 127/152/253 76/170/254 77/171/256
f 129/154/257 128/153/255 77/171/256 78/172/258
f 130/155/259 129/154/257 78/172/258 79/173/260
f 131/156/261 130/155/259 79/173/260 80/174/262
f 132/157/263 131/156/261 80/174/262 81/175/264
f 133/158/265 132/157/263 81/175/264 82/176/266
f 134/159/267 133/158/265 82/176/266 83/177/268
f 135/160/269 134/159/267 83/177/268 84/178/270
f 120/162/240 136/161/271 85/179/272 69/180/241
